<!-- Generated by IcoMoon.io -->
<svg version="1.1" xmlns="http://www.w3.org/2000/svg" width="768" height="768" viewBox="0 0 768 768">
<title></title>
<g id="icomoon-ignore">
</g>
<path d="M384 672c-52.928 0-96-43.072-96-96v-152.448c-36.576 32.768-96.8 31.328-131.872-3.68-37.44-37.408-37.44-98.336 0-135.744l227.872-227.872 227.872 227.872c37.44 37.408 37.44 98.336 0 135.744-35.008 35.040-95.328 36.48-131.872 3.68v152.448c0 52.928-43.072 96-96 96zM352 269.248v306.752c0 17.632 14.336 32 32 32s32-14.368 32-32v-306.752l105.376 105.376c12.128 12.096 33.12 12.096 45.248 0 12.512-12.512 12.512-32.736 0-45.248l-182.624-182.624-182.624 182.624c-12.512 12.512-12.512 32.736 0 45.248 12.128 12.096 33.12 12.096 45.248 0l105.376-105.376z"></path>
</svg>
